HIERARCHY
ROOT root
{
	OFFSET 0.00 0.00 0.00
	CHANNELS 6 Xposition Yposition Zposition Zrotation Xrotation Yrotation
	JOINT lowerback
	{
		OFFSET 0 0 0
		CHANNELS 6 Xposition Yposition Zposition Zrotation Xrotation Yrotation
		JOINT upperback
		{
			OFFSET -0.214371 12.3768 -1.12219
			CHANNELS 6 Xposition Yposition Zposition Zrotation Xrotation Yrotation
			JOINT thorax
			{
				OFFSET -0.00137213 12.3873 0.296195
				CHANNELS 6 Xposition Yposition Zposition Zrotation Xrotation Yrotation
				JOINT lowerneck
				{
					OFFSET 0.0883157 12.5016 0.82912
					CHANNELS 6 Xposition Yposition Zposition Zrotation Xrotation Yrotation
					JOINT upperneck
					{
						OFFSET -1 10.1794 0.943522
						CHANNELS 6 Xposition Yposition Zposition Zrotation Xrotation Yrotation
						JOINT head
						{
							OFFSET 0.667525 10.2797 -1.57149
							CHANNELS 6 Xposition Yposition Zposition Zrotation Xrotation Yrotation
							End Site
							{
								OFFSET 0 0 0
							}
						}
					}
				}
				JOINT lclavicle
				{
					OFFSET 0.0883157 12.5016 0.82912
					CHANNELS 6 Xposition Yposition Zposition Zrotation Xrotation Yrotation
					JOINT lhumerus
					{
						OFFSET 20.61 4.45006 1.43784
						CHANNELS 6 Xposition Yposition Zposition Zrotation Xrotation Yrotation
						JOINT lradius
						{
							OFFSET 0 -30.3438 0
							CHANNELS 6 Xposition Yposition Zposition Zrotation Xrotation Yrotation
							JOINT lwrist
							{
								OFFSET 0 -18.964 0
								CHANNELS 6 Xposition Yposition Zposition Zrotation Xrotation Yrotation
								JOINT lhand
								{
									OFFSET 0 -9.48199 0
									CHANNELS 6 Xposition Yposition Zposition Zrotation Xrotation Yrotation
									JOINT lfingers
									{
										OFFSET 0 -3.17138 0
										CHANNELS 6 Xposition Yposition Zposition Zrotation Xrotation Yrotation
										End Site
										{
											OFFSET 0 -2.55685 0
										}
									}
								}
								JOINT lthumb
								{
									OFFSET 0 -9.48199 0
									CHANNELS 6 Xposition Yposition Zposition Zrotation Xrotation Yrotation
									End Site
									{
										OFFSET 0 -3.67114 0
									}
								}
							}
						}
					}
				}
				JOINT rclavicle
				{
					OFFSET 0.0883157 12.5016 0.82912
					CHANNELS 6 Xposition Yposition Zposition Zrotation Xrotation Yrotation
					JOINT rhumerus
					{
						OFFSET -20.61 4.45 1.44
						CHANNELS 6 Xposition Yposition Zposition Zrotation Xrotation Yrotation
						JOINT rradius
						{
							OFFSET 0 -29.5102 0
							CHANNELS 6 Xposition Yposition Zposition Zrotation Xrotation Yrotation
							JOINT rwrist
							{
								OFFSET 0 -19.2342 0
								CHANNELS 6 Xposition Yposition Zposition Zrotation Xrotation Yrotation
								JOINT rhand
								{
									OFFSET 0 -9.61712 0
									CHANNELS 6 Xposition Yposition Zposition Zrotation Xrotation Yrotation
									JOINT rfingers
									{
										OFFSET 0 -3.29215 0
										CHANNELS 6 Xposition Yposition Zposition Zrotation Xrotation Yrotation
										End Site
										{
											OFFSET 0 -2.557 0
										}
									}
								}
								JOINT rthumb
								{
									OFFSET 0 -9.61712 0
									CHANNELS 6 Xposition Yposition Zposition Zrotation Xrotation Yrotation
									End Site
									{
										OFFSET 0 -3.671 0
									}
								}
							}
						}
					}
				}
			}
		}
	}
	JOINT rfemur
	{
		OFFSET -8.46272 -9.62775 4.76248
		CHANNELS 6 Xposition Yposition Zposition Zrotation Xrotation Yrotation
		JOINT rtibia
		{
			OFFSET 1.00552e-005 -38.0331 0
			CHANNELS 6 Xposition Yposition Zposition Zrotation Xrotation Yrotation
			JOINT rfoot
			{
				OFFSET 1.14428e-005 -43.2815 0
				CHANNELS 6 Xposition Yposition Zposition Zrotation Xrotation Yrotation
				JOINT rtoes
				{
					OFFSET 0 -14.1868 -3.08763
					CHANNELS 6 Xposition Yposition Zposition Zrotation Xrotation Yrotation
					End Site
					{
						OFFSET 0 -7.27332 0
					}
				}
			}
		}
	}
	JOINT lfemur
	{
		OFFSET 9.10607 -9.62778 4.76249
		CHANNELS 6 Xposition Yposition Zposition Zrotation Xrotation Yrotation
		JOINT ltibia
		{
			OFFSET -1.01399e-005 -38.3535 0
			CHANNELS 6 Xposition Yposition Zposition Zrotation Xrotation Yrotation
			JOINT lfoot
			{
				OFFSET -1.12937e-005 -42.7176 0
				CHANNELS 6 Xposition Yposition Zposition Zrotation Xrotation Yrotation
				JOINT ltoes
				{
					OFFSET 0 -13.9965 -2.83857
					CHANNELS 6 Xposition Yposition Zposition Zrotation Xrotation Yrotation
					End Site
					{
						OFFSET 0 -7.16348 0
					}
				}
			}
		}
	}
}
MOTION
Frames: 5
Frame Time: 0.00833333
-0.726186	89.4433	25.6807	-2.27378	10.7727	3.43916	0 0 0 6.10665	30.3577	-0.132812	-0.214371 12.3768 -1.12219 0.907678	14.5047	-1.46166	-0.00137213 12.3873 0.296195 -2.44713	-0.182115	-1.52981	0.0883157 12.5016 0.82912 1.6017	6.14939	-0.232414	-1 10.1794 0.943522 2.64514	-20.2336	-0.227467	0.667525 10.2797 -1.57149 0.5789	-7.19876	-0.781179	0.0883157 12.5016 0.82912 -15	0	-0	20.61 4.45006 1.43784 23.9432	-14.1656	174.268	0 -30.3438 0 -0	62.6117	-0	0 -18.964 0 1.39784e-014	-8.77337e-016	-97.1828	0 -9.48199 0 1.22245	4.37968	-2.58917e-014	0 -3.17138 0 -0	7.12502	-0	0 -9.48199 0 25	15	-1.36605e-015	0.0883157 12.5016 0.82912 15	0	-0	-20.61 4.45 1.44 -17.425	-7.13777	179.557	0 -29.5102 0 -0	57.355	-0	0 -19.2342 0 4.94091e-016	-2.58644e-015	111.63	0 -9.61712 0 1.22	4.38	-0	0 -3.29215 0 -0	7.12502	-0	0 -9.61712 0 25	15	-7.97034e-015	-8.46272 -9.62775 4.76248 -1.04453	-50.4483	-8.64934	1.00552e-005 -38.0331 0 -0	62.6859	-0	1.14428e-005 -43.2815 0 -63.2701	-76.9706	-63.8663	0 -14.1868 -3.08763 -0	-17.2484	-0	9.10607 -9.62778 4.76249 12.2429	-36.7205	15.9789	-1.01399e-005 -38.3535 0 -0	60.3365	-0	-1.12937e-005 -42.7176 0 68.4285	-81.6627	68.6358	0 -13.9965 -2.83857 -0	-37.9641	-0
-0.837824	89.4665	26.004	-2.23242	10.8301	3.45895	0 0 0 6.17739	30.3271	-0.185097	-0.214371 12.3768 -1.12219 0.958831	14.487	-1.50343	-0.00137213 12.3873 0.296195 -2.41577	-0.190457	-1.54785	0.0883157 12.5016 0.82912 1.6192	6.13289	-0.228421	-1 10.1794 0.943522 2.6179	-20.1901	-0.224194	0.667525 10.2797 -1.57149 0.566675	-7.18187	-0.776664	0.0883157 12.5016 0.82912 -15	0	-0	20.61 4.45006 1.43784 23.8314	-13.9655	174.123	0 -30.3438 0 -0	62.351	-0	0 -18.964 0 1.39774e-014	-8.84688e-016	-97.2433	0 -9.48199 0 1.22245	4.37968	-2.58917e-014	0 -3.17138 0 -0	7.12502	-0	0 -9.48199 0 25	15	-1.36605e-015	0.0883157 12.5016 0.82912 15	0	-0	-20.61 4.45 1.44 -17.4846	-7.20753	179.72	0 -29.5102 0 -0	57.0987	-0	0 -19.2342 0 4.96622e-016	-2.59281e-015	111.686	0 -9.61712 0 1.22	4.38	-0	0 -3.29215 0 -0	7.12502	-0	0 -9.61712 0 25	15	-7.97034e-015	-8.46272 -9.62775 4.76248 -1.00082	-50.3312	-8.64444	1.00552e-005 -38.0331 0 -0	62.7988	-0	1.14428e-005 -43.2815 0 -63.9263	-77.1649	-64.4947	0 -14.1868 -3.08763 -0	-17.2219	-0	9.10607 -9.62778 4.76249 12.2702	-36.5761	15.9364	-1.01399e-005 -38.3535 0 -0	60.3837	-0	-1.12937e-005 -42.7176 0 68.4602	-81.6954	68.6656	0 -13.9965 -2.83857 -0	-38.3785	-0
-0.949509	89.4919	26.3259	-2.21048	10.9115	3.50388	0 0 0 6.27475	30.2788	-0.244438	-0.214371 12.3768 -1.12219 1.02026	14.4632	-1.5447	-0.00137213 12.3873 0.296195 -2.38628	-0.197466	-1.5639	0.0883157 12.5016 0.82912 1.63277	6.10848	-0.230542	-1 10.1794 0.943522 2.59307	-20.146	-0.229981	0.667525 10.2797 -1.57149 0.5571	-7.16328	-0.776489	0.0883157 12.5016 0.82912 -15	0	-0	20.61 4.45006 1.43784 23.7271	-13.7804	173.996	0 -30.3438 0 -0	62.0993	-0	0 -18.964 0 1.39765e-014	-8.91916e-016	-97.3028	0 -9.48199 0 1.22245	4.37968	-2.58917e-014	0 -3.17138 0 -0	7.12502	-0	0 -9.48199 0 25	15	-1.36605e-015	0.0883157 12.5016 0.82912 15	0	-0	-20.61 4.45 1.44 -17.5595	-7.26959	179.859	0 -29.5102 0 -0	56.8811	-0	0 -19.2342 0 4.98298e-016	-2.59702e-015	111.723	0 -9.61712 0 1.22	4.38	-0	0 -3.29215 0 -0	7.12502	-0	0 -9.61712 0 25	15	-7.97034e-015	-8.46272 -9.62775 4.76248 -0.965786	-50.2257	-8.67364	1.00552e-005 -38.0331 0 -0	62.8656	-0	1.14428e-005 -43.2815 0 -64.5904	-77.3374	-65.1334	0 -14.1868 -3.08763 -0	-17.2251	-0	9.10607 -9.62778 4.76249 12.3117	-36.4741	15.894	-1.01399e-005 -38.3535 0 -0	60.4347	-0	-1.12937e-005 -42.7176 0 68.3679	-81.7313	68.5723	0 -13.9965 -2.83857 -0	-38.7642	-0
-1.06504	89.5116	26.6396	-2.20585	11.0145	3.57346	0 0 0 6.39679	30.2142	-0.309134	-0.214371 12.3768 -1.12219 1.09136	14.4332	-1.58387	-0.00137213 12.3873 0.296195 -2.3587	-0.203644	-1.57731	0.0883157 12.5016 0.82912 1.64319	6.07693	-0.238728	-1 10.1794 0.943522 2.56974	-20.1039	-0.244869	0.667525 10.2797 -1.57149 0.549747	-7.14401	-0.780767	0.0883157 12.5016 0.82912 -15	0	-0	20.61 4.45006 1.43784 23.6331	-13.6097	173.89	0 -30.3438 0 -0	61.8669	-0	0 -18.964 0 1.39757e-014	-8.98305e-016	-97.3554	0 -9.48199 0 1.22245	4.37968	-2.58917e-014	0 -3.17138 0 -0	7.12502	-0	0 -9.48199 0 25	15	-1.36605e-015	0.0883157 12.5016 0.82912 15	0	-0	-20.61 4.45 1.44 -17.6472	-7.31828	179.97	0 -29.5102 0 -0	56.7105	-0	0 -19.2342 0 4.99114e-016	-2.59907e-015	111.741	0 -9.61712 0 1.22	4.38	-0	0 -3.29215 0 -0	7.12502	-0	0 -9.61712 0 25	15	-7.97034e-015	-8.46272 -9.62775 4.76248 -0.939603	-50.1302	-8.73382	1.00552e-005 -38.0331 0 -0	62.8956	-0	1.14428e-005 -43.2815 0 -65.2685	-77.4904	-65.788	0 -14.1868 -3.08763 -0	-17.242	-0	9.10607 -9.62778 4.76249 12.368	-36.4156	15.8551	-1.01399e-005 -38.3535 0 -0	60.4966	-0	-1.12937e-005 -42.7176 0 68.1207	-81.7722	68.3249	0 -13.9965 -2.83857 -0	-39.112	-0
-1.18018	89.5269	26.9465	-2.21541	11.1353	3.66586	0 0 0 6.54019	30.1363	-0.37717	-0.214371 12.3768 -1.12219 1.17094	14.3973	-1.61942	-0.00137213 12.3873 0.296195 -2.33302	-0.209892	-1.58755	0.0883157 12.5016 0.82912 1.65146	6.03959	-0.252561	-1 10.1794 0.943522 2.54721	-20.0665	-0.268286	0.667525 10.2797 -1.57149 0.544128	-7.12519	-0.789351	0.0883157 12.5016 0.82912 -15	0	-0	20.61 4.45006 1.43784 23.5524	-13.452	173.804	0 -30.3438 0 -0	61.6641	-0	0 -18.964 0 1.3975e-014	-9.03223e-016	-97.3959	0 -9.48199 0 1.22245	4.37968	-2.58917e-014	0 -3.17138 0 -0	7.12502	-0	0 -9.48199 0 25	15	-1.36605e-015	0.0883157 12.5016 0.82912 15	0	-0	-20.61 4.45 1.44 -17.7455	-7.34942	-179.953	0 -29.5102 0 -0	56.5916	-0	0 -19.2342 0 4.99205e-016	-2.5993e-015	111.743	0 -9.61712 0 1.22	4.38	-0	0 -3.29215 0 -0	7.12502	-0	0 -9.61712 0 25	15	-7.97034e-015	-8.46272 -9.62775 4.76248 -0.921991	-50.0422	-8.81991	1.00552e-005 -38.0331 0 -0	62.8989	-0	1.14428e-005 -43.2815 0 -65.9642	-77.6259	-66.4617	0 -14.1868 -3.08763 -0	-17.2615	-0	9.10607 -9.62778 4.76249 12.4392	-36.3998	15.8235	-1.01399e-005 -38.3535 0 -0	60.5765	-0	-1.12937e-005 -42.7176 0 67.6803	-81.8175	67.8855	0 -13.9965 -2.83857 -0	-39.4147	-0
